<?xml version="1.0" encoding="UTF-8"?>
<svg id="BACKGROUND" xmlns="http://www.w3.org/2000/svg" viewBox="0 0 50 50">
  <defs>
    <style>
      .cls-1 {
        fill: #e7e7e7;
      }
    </style>
  </defs>
  <path class="cls-1" d="M30.64,30.67c-.1,0-.2-.03-.28-.08l-8.35-5.13c-.16-.1-.26-.27-.26-.46s.1-.36.26-.46l8.35-5.13c.17-.1.38-.11.55-.01.17.1.28.28.28.47v10.26c0,.2-.11.38-.28.47-.08.05-.17.07-.26.07ZM23.33,25l6.77,4.16v-8.32l-6.77,4.16Z"/>
  <path class="cls-1" d="M19.36,30.67c-.3,0-.54-.24-.54-.54v-10.26c0-.3.24-.54.54-.54s.54.24.54.54v10.26c0,.3-.24.54-.54.54Z"/>
</svg>