<?xml version="1.0" encoding="UTF-8"?>
<svg id="BACKGROUND" xmlns="http://www.w3.org/2000/svg" viewBox="0 0 50 50">
  <defs>
    <style>
      .cls-1 {
        fill: #e7e7e7;
      }
    </style>
  </defs>
  <path class="cls-1" d="M18.11,30.67c-.09,0-.18-.02-.26-.07-.17-.1-.28-.28-.28-.47v-10.26c0-.2.11-.38.28-.47.17-.1.38-.09.55.01l8.35,5.13c.16.1.26.27.26.46s-.1.36-.26.46l-8.35,5.13c-.09.05-.19.08-.28.08ZM18.65,20.84v8.32l6.77-4.16-6.77-4.16Z"/>
  <path class="cls-1" d="M26.46,30.67c-.09,0-.18-.02-.26-.07-.17-.1-.28-.28-.28-.47v-10.26c0-.2.11-.38.28-.47.17-.1.38-.09.55.01l8.35,5.13c.16.1.26.27.26.46s-.1.36-.26.46l-8.35,5.13c-.09.05-.19.08-.28.08ZM27,20.84v8.32l6.77-4.16-6.77-4.16Z"/>
</svg>