<?xml version="1.0" encoding="UTF-8"?>
<svg id="BACKGROUND" xmlns="http://www.w3.org/2000/svg" xmlns:xlink="http://www.w3.org/1999/xlink" viewBox="0 0 50 50">
  <defs>
    <style>
      .cls-1 {
        fill: url(#Degradado_sin_nombre_3);
      }
    </style>
    <linearGradient id="Degradado_sin_nombre_3" data-name="Degradado sin nombre 3" x1="7.32" y1="25" x2="42.68" y2="25" gradientUnits="userSpaceOnUse">
      <stop offset="0" stop-color="#bc3aff"/>
      <stop offset="1" stop-color="#bc3aff"/>
    </linearGradient>
  </defs>
  <path class="cls-1" d="M33.46,26.31c-3.23,0-6.08,1.68-7.72,4.2l-3.94-2.32c.68-1.15,1.07-2.49,1.07-3.92,0-1.53-.45-2.95-1.21-4.15l3.92-3.61c1.11.93,2.54,1.5,4.1,1.5,3.52,0,6.38-2.86,6.38-6.38s-2.86-6.38-6.38-6.38-6.38,2.86-6.38,6.38c0,1,.24,1.95.66,2.8l-4.06,3.74c-1.32-1.04-2.99-1.67-4.8-1.67-4.29,0-7.78,3.49-7.78,7.78s3.49,7.77,7.78,7.77c1.9,0,3.63-.68,4.99-1.82l4.55,2.68c-.25.83-.39,1.71-.39,2.62,0,5.08,4.14,9.22,9.22,9.22s9.22-4.14,9.22-9.22-4.14-9.22-9.22-9.22ZM29.68,7.88c2.07,0,3.75,1.68,3.75,3.75s-1.68,3.75-3.75,3.75-3.75-1.68-3.75-3.75,1.68-3.75,3.75-3.75ZM9.95,24.27c0-2.84,2.31-5.15,5.15-5.15s5.15,2.31,5.15,5.15-2.31,5.15-5.15,5.15-5.15-2.31-5.15-5.15ZM33.46,42.13c-3.63,0-6.59-2.96-6.59-6.59s2.96-6.59,6.59-6.59,6.59,2.96,6.59,6.59-2.96,6.59-6.59,6.59Z"/>
</svg>