<?xml version="1.0" encoding="UTF-8"?>
<svg id="BACKGROUND" xmlns="http://www.w3.org/2000/svg" viewBox="0 0 50 50">
  <defs>
    <style>
      .cls-1 {
        fill: #34393f;
      }
    </style>
  </defs>
  <path class="cls-1" d="M31.95,17.75c-.21-.19-.5-.29-.79-.26l-8.39.76c-.53.05-.93.49-.93,1.02v8c-.41-.05-.84-.03-1.29.09-1.62.41-2.84,1.72-2.84,3.05,0,.64.28,1.21.78,1.6.44.34,1.01.52,1.64.52.3,0,.61-.04.93-.12,1.62-.41,2.84-1.72,2.84-3.05v-6.11l6.33-.57v3.84c-.41-.05-.84-.03-1.29.09-1.62.41-2.84,1.72-2.84,3.05,0,.64.28,1.21.78,1.6.44.34,1.01.52,1.64.52.3,0,.61-.04.93-.12,1.62-.41,2.84-1.72,2.84-3.05v-10.09c0-.29-.12-.56-.33-.76ZM23.9,21.18v-.97l6.33-.57v.97l-6.33.57Z"/>
</svg>