<?xml version="1.0" encoding="UTF-8"?>
<svg id="BACKGROUND" xmlns="http://www.w3.org/2000/svg" xmlns:xlink="http://www.w3.org/1999/xlink" viewBox="0 0 50 50">
  <defs>
    <style>
      .cls-1 {
        fill: none;
        stroke: url(#Degradado_sin_nombre_3);
        stroke-miterlimit: 10;
        stroke-width: 2px;
      }
    </style>
    <linearGradient id="Degradado_sin_nombre_3" data-name="Degradado sin nombre 3" x1="7.37" y1="25" x2="42.63" y2="25" gradientUnits="userSpaceOnUse">
      <stop offset="0" stop-color="#bc3aff"/>
      <stop offset="1" stop-color="#bc3aff"/>
    </linearGradient>
  </defs>
  <path class="cls-1" d="M38.09,25c0-.6-.12-1.49-.23-2.19-.1-.64.2-1.26.76-1.59l2.23-1.29c.75-.43,1-1.38.57-2.13l-1.99-3.44c-.43-.75-1.38-1-2.13-.57l-3.17,1.83c-1.29-1.26-2.83-2.25-4.54-2.89-.62-.23-1.05-.78-1.05-1.44,0-.75,0-1.74,0-2.57,0-.86-.7-1.55-1.56-1.55h-3.97c-.86,0-1.56.7-1.56,1.56v2.66c0,.6-.34,1.15-.89,1.41-1.03.48-2.74,1.33-3.93,2.19-.5.36-1.16.41-1.7.1l-2.24-1.29c-.75-.43-1.7-.17-2.13.57l-1.99,3.44c-.43.75-.17,1.7.57,2.13l3.17,1.83s0,0,0,0c-.26,1.03-.4,2.11-.4,3.23,0,.74.06,1.47.18,2.19.11.63-.15,1.27-.71,1.59l-2.24,1.29c-.75.43-1,1.38-.57,2.13l1.99,3.44c.43.75,1.38,1,2.13.57l2.24-1.29c.56-.32,1.24-.23,1.73.18,1.38,1.15,3,2.01,4.78,2.5,0,0,0,0,0,0v3.67c0,.86.7,1.56,1.56,1.56h3.97c.86,0,1.56-.69,1.56-1.55,0-.83,0-1.83,0-2.58,0-.66.43-1.21,1.05-1.44,1.37-.51,2.63-1.25,3.74-2.16.49-.41,1.18-.5,1.73-.18l2.24,1.3c.75.43,1.7.17,2.13-.57l1.99-3.44c.43-.75.18-1.7-.57-2.13l-2.24-1.29c-.55-.32-.81-.95-.71-1.59.12-.71.18-1.44.18-2.19ZM25,29.96c-2.74,0-4.95-2.22-4.95-4.96s2.21-4.95,4.95-4.95,4.96,2.22,4.96,4.95-2.22,4.96-4.96,4.96Z"/>
</svg>