<?xml version="1.0" encoding="UTF-8"?>
<svg id="BACKGROUND" xmlns="http://www.w3.org/2000/svg" xmlns:xlink="http://www.w3.org/1999/xlink" viewBox="0 0 50 50">
  <defs>
    <style>
      .cls-1 {
        fill: url(#Degradado_sin_nombre_3);
      }
    </style>
    <linearGradient id="Degradado_sin_nombre_3" data-name="Degradado sin nombre 3" x1="6.25" y1="25" x2="43.75" y2="25" gradientUnits="userSpaceOnUse">
      <stop offset="0" stop-color="#bc3aff"/>
      <stop offset="1" stop-color="#bc3aff"/>
    </linearGradient>
  </defs>
  <path class="cls-1" d="M35.59,42.91c-.29,0-.57-.08-.83-.23l-9.76-5.79-9.76,5.79c-.56.33-1.25.3-1.78-.08-.52-.38-.77-1.03-.63-1.67l2.49-11.08-8.52-7.49c-.49-.43-.67-1.1-.47-1.72.2-.62.75-1.05,1.39-1.11l11.3-1.05,4.49-10.42c.26-.6.84-.98,1.49-.98h0c.65,0,1.23.39,1.49.98l4.49,10.42,11.3,1.05c.64.06,1.19.5,1.39,1.11.2.62.01,1.29-.47,1.72l-8.52,7.49,2.49,11.08c.14.63-.1,1.28-.62,1.66-.28.21-.62.31-.95.31ZM34.6,41.51s0,0,0,0h0ZM10.29,21.94l7.22,6.34c.45.4.64,1,.51,1.57l-2.11,9.38,8.26-4.9c.51-.3,1.14-.3,1.65,0l8.26,4.9-2.11-9.37c-.13-.58.07-1.18.51-1.57l7.22-6.34-9.57-.89c-.59-.05-1.1-.43-1.34-.97l-3.8-8.82-3.8,8.82c-.23.54-.75.92-1.34.97l-9.57.89ZM42.04,22.16h0,0ZM18.78,19.04s0,0,0,0h0ZM31.22,19.03h0s0,0,0,0ZM24.07,9.1s0,0,0,0h0s0,0,0,0Z"/>
</svg>